# xmcd
#
# Track frame offsets: 
#        150
#        12119
#        25491
#        39525
#        53603
#        67989
#        82314
#        95197
#        107480
#        119877
#        133635
#        157314
#        171827
#        190449
#        203260
#        224161
#        238459
#        252062
#        264234
#        282627
#
# Disc length: 3941 seconds
#
# Revision: 2
# Processed by: cddbd v1.5.2PL0 Copyright (c) Steve Scherf et al.
# Submitted via: ExactAudioCopyFreeDBPlugin 1.0
#
DISCID=360f6314
DTITLE=Jimmy Yancey - ABC Of The Blues - Vol. 52 Yancey
DYEAR=2010
DGENRE=Blues
TTITLE0=Rolling The Stone
TTITLE1=Steady Rock Blues
TTITLE2=P.L.K. Special
TTITLE3=South Side Stuff
TTITLE4=Yancey큦 Getaway
TTITLE5=How Long Blues
TTITLE6=Yancey Stomp
TTITLE7=State Street Special
TTITLE8=Five O퀰lock Blues
TTITLE9=La Salle Street Breakdown
TTITLE10=Four O퀰lock Blues
TTITLE11=35th And Dearborne
TTITLE12=Monkey Woman Blues
TTITLE13=Santa Fe Blues
TTITLE14=Make Me A Pallet On The Floor
TTITLE15=Lucille큦 Lament
TTITLE16=Two O퀰lock Blues
TTITLE17=Yancey Special
TTITLE18=White Sox Stomp
TTITLE19=Shave큖m Dry
EXTD=
EXTT0=
EXTT1=
EXTT2=
EXTT3=
EXTT4=
EXTT5=
EXTT6=
EXTT7=
EXTT8=
EXTT9=
EXTT10=
EXTT11=
EXTT12=
EXTT13=
EXTT14=
EXTT15=
EXTT16=
EXTT17=
EXTT18=
EXTT19=
PLAYORDER=
